# xmcd
# 
# Track frame offsets:
#     150
#     18557
#     36912
#     56780
#     73275
#     91400
#     107505
#     126795
#     146080
#     164360
#     183212
# 
# Disc length: 2666
# 
# Revision: 8
# Processed by: cddbd v1.5.2PL0 Copyright (c) Steve Scherf et al.
# Submitted via: BonkEnc v1.0.8
# 
DISCID=9d0a680b
DTITLE=Do As Infinity - DEEP FOREST
DYEAR=2001
DGENRE=JPop
TTITLE0=深い森
TTITLE1=遠くまで(Album Ver.)
TTITLE2=タダイマ
TTITLE3=Get yourself
TTITLE4=翼の計画
TTITLE5=構造改革
TTITLE6=恋妃
TTITLE7=Week!
TTITLE8=Hang out
TTITLE9=冒険者たち
TTITLE10=遠雷
EXTD=AVCD-11981 2001.09.19 (Japan) YEAR: 2001
EXTT0=
EXTT1=
EXTT2=
EXTT3=
EXTT4=
EXTT5=
EXTT6=
EXTT7=
EXTT8=
EXTT9=
EXTT10=
PLAYORDER=
